<svg width="512" height="512" viewBox="0 0 512 512" fill="none" xmlns="http://www.w3.org/2000/svg">
<g clip-path="url(#clip0_98_14)">
<path d="M435.2 0H76.8C34.3845 0 0 34.3845 0 76.8V435.2C0 477.615 34.3845 512 76.8 512H435.2C477.615 512 512 477.615 512 435.2V76.8C512 34.3845 477.615 0 435.2 0Z" fill="#FCFDFD"/>
<path d="M143.342 109.801H223.815V116.197H150.719V164.337H219.456V170.733H150.719V223.585H224.653V229.981H143.342V109.801ZM231.024 109.801H239.574L277.464 162.653L316.192 109.801L368.868 42.6667L282.326 168.208L326.921 229.981H318.036L277.464 173.762L236.724 229.981H228.006L272.937 168.208L231.024 109.801ZM330.107 116.197V109.801H421.813V116.197H379.564V229.981H372.188V116.197H330.107ZM42.6665 109.801H51.8874L179.038 300.07L126.493 229.981L50.3785 118.89L50.0432 229.981H42.6665V109.801ZM421.07 221.655C419.562 221.655 418.432 220.487 418.432 218.978C418.432 217.469 419.562 216.301 421.07 216.301C422.595 216.301 423.707 217.469 423.707 218.978C423.707 220.487 422.595 221.655 421.07 221.655ZM428.318 214.612H432.265C432.319 216.75 433.88 218.187 436.177 218.187C438.742 218.187 440.196 216.642 440.196 213.75V195.425H444.215V213.768C444.215 218.978 441.2 221.978 436.213 221.978C431.53 221.978 428.318 219.068 428.318 214.612ZM449.472 214.379H453.455C453.796 216.84 456.2 218.403 459.663 218.403C462.892 218.403 465.26 216.732 465.26 214.433C465.26 212.456 463.753 211.271 460.326 210.462L456.989 209.654C452.306 208.558 450.171 206.294 450.171 202.486C450.171 197.869 453.939 194.797 459.591 194.797C464.848 194.797 468.687 197.869 468.921 202.234H465.009C464.632 199.845 462.551 198.354 459.537 198.354C456.361 198.354 454.244 199.881 454.244 202.216C454.244 204.067 455.608 205.127 458.981 205.917L461.833 206.618C467.144 207.857 469.333 210.013 469.333 213.912C469.333 218.87 465.494 221.978 459.358 221.978C453.616 221.978 449.759 219.014 449.472 214.379Z" fill="black"/>
</g>
<defs>
<clipPath id="clip0_98_14">
<rect width="512" height="512" fill="white"/>
</clipPath>
</defs>
</svg>
