<svg width="512" height="512" viewBox="0 0 512 512" fill="none" xmlns="http://www.w3.org/2000/svg">
<g clip-path="url(#clip0_67_20)">
<path d="M379.984 480.08C378.08 481.088 378.24 481.408 380.064 480.48C380.656 480.24 381.152 479.904 381.584 479.504C381.584 479.168 381.584 479.168 379.984 480.08ZM383.824 478C382.912 478.752 382.912 478.752 384 478.256C384.576 477.92 385.088 477.6 385.088 477.504C385.088 477.072 384.832 477.168 383.824 478ZM386.32 476.496C385.408 477.248 385.408 477.248 386.496 476.752C387.088 476.416 387.584 476.064 387.584 475.984C387.584 475.584 387.328 475.664 386.32 476.496ZM388.848 475.008C387.936 475.76 387.936 475.76 388.992 475.248C389.584 474.928 390.08 474.592 390.08 474.496C390.08 474.096 389.824 474.176 388.848 475.008ZM392.256 472.752C390.512 473.92 389.904 474.672 391.504 473.84C392.576 473.184 394.4 471.744 394.08 471.744C393.392 472 392.816 472.432 392.24 472.752H392.256ZM239.248 0.17595C238.08 0.25595 234.576 0.57595 231.504 0.83195C158.736 7.42395 90.656 46.5919 47.504 106.928C23.648 140 8.16 178.416 2.32 218.752C0.256 232.832 0 236.992 0 256.08C0 275.152 0.256 279.248 2.32 293.328C16.256 389.504 84.672 470.24 177.408 500.16C194.096 505.488 211.584 509.168 231.504 511.424C239.248 512.256 272.736 512.256 280.48 511.424C314.912 507.584 343.984 499.088 372.752 484.416C377.168 482.176 378 481.584 377.408 481.088C363.328 462.512 349.504 443.92 335.664 425.168L294.752 369.92L243.504 294C226.416 268.592 209.264 243.248 191.84 218.096C191.664 218.096 191.44 251.84 191.344 292.992C191.168 365.072 191.168 368 190.256 369.664C189.344 371.664 187.84 373.328 185.84 374.256C184.256 375.008 182.832 375.168 175.264 375.168H166.608L164.352 373.76C162.944 372.848 161.776 371.584 161.024 370.096L159.936 367.84L160.016 267.504L160.192 167.168L161.776 165.168C162.784 163.936 164.032 162.928 165.44 162.176C167.536 161.168 168.368 161.008 177.024 161.008C187.184 161.008 188.864 161.408 191.536 164.336C212.272 195.248 232.944 226.24 253.28 257.328C286.544 307.76 331.952 376.576 354.272 410.336L394.864 471.76L396.864 470.432C416.368 457.424 434.112 441.936 449.424 424.272C481.68 387.344 502.608 341.92 509.696 293.44C511.76 279.36 512.016 275.184 512.016 256.112C512.016 237.024 511.76 232.944 509.696 218.864C495.76 122.688 427.344 41.952 334.608 12.016C317.264 6.52795 299.424 2.78395 281.36 0.86395C276.512 0.36795 243.424 -0.22405 239.264 0.20795L239.248 0.17595ZM344 155.008C346.416 156.16 348.24 158.336 349.072 160.832C349.504 162.176 349.584 190 349.504 252.672L349.328 342.656L333.504 318.336L317.584 294V228.672C317.584 186.32 317.76 162.576 317.984 161.408C318.736 158.736 320.56 156.496 322.992 155.088C324.976 154.08 325.744 154 333.664 154C341.072 154 342.336 154.08 344 155.008Z" fill="black"/>
</g>
<defs>
<clipPath id="clip0_67_20">
<rect width="512" height="512" fill="white"/>
</clipPath>
</defs>
</svg>
