<svg width="512" height="512" viewBox="0 0 512 512" fill="none" xmlns="http://www.w3.org/2000/svg">
<g clip-path="url(#clip0_91_36)">
<path d="M90.6667 4.1268e-05H421.333C433.243 -0.0114715 445.038 2.38597 456.043 7.05514C467.048 11.7243 477.048 18.5736 485.469 27.2109C493.891 35.8483 500.569 46.1041 505.121 57.3916C509.674 68.679 512.011 80.7764 512 92.9915V419.009C512.011 431.224 509.674 443.321 505.121 454.608C500.569 465.896 493.891 476.152 485.469 484.789C477.048 493.426 467.048 500.276 456.043 504.945C445.038 509.614 433.243 512.011 421.333 512H90.6667C78.757 512.011 66.962 509.614 55.9568 504.945C44.9515 500.276 34.9521 493.426 26.5307 484.789C18.1092 476.152 11.4312 465.896 6.87877 454.608C2.32632 443.321 -0.0111847 431.224 4.02363e-05 419.009V92.9915C-0.0111847 80.7764 2.32632 68.679 6.87877 57.3916C11.4312 46.1041 18.1092 35.8483 26.5307 27.2109C34.9521 18.5736 44.9515 11.7243 55.9568 7.05514C66.962 2.38597 78.757 -0.0114715 90.6667 4.1268e-05V4.1268e-05Z" fill="#000B1D"/>
<g clip-path="url(#clip1_91_36)">
<path d="M256 289.855C275.659 289.855 291.595 274.124 291.595 254.72C291.595 235.316 275.659 219.585 256 219.585C236.341 219.585 220.405 235.316 220.405 254.72C220.405 274.124 236.341 289.855 256 289.855Z" fill="#61DAFB"/>
<path fill-rule="evenodd" clip-rule="evenodd" d="M85.5863 232.797C76.9498 240.492 73.3216 247.915 73.3216 254.72C73.3216 261.526 76.9498 268.948 85.5863 276.643C94.2219 284.338 107.185 291.644 123.911 297.948C157.307 310.534 204.005 318.491 256 318.491C307.994 318.491 354.692 310.534 388.088 297.948C404.815 291.644 417.778 284.338 426.413 276.643C435.05 268.948 438.678 261.526 438.678 254.72C438.678 247.915 435.05 240.492 426.413 232.797C417.778 225.102 404.815 217.796 388.088 211.492C354.692 198.906 307.994 190.949 256 190.949C204.005 190.949 157.307 198.906 123.911 211.492C107.185 217.796 94.2219 225.102 85.5863 232.797ZM117.976 196.148C153.708 182.682 202.509 174.525 256 174.525C309.491 174.525 358.292 182.682 394.024 196.148C411.861 202.871 426.869 211.076 437.564 220.605C448.257 230.133 455.318 241.648 455.318 254.72C455.318 267.792 448.257 279.307 437.564 288.835C426.869 298.364 411.861 306.569 394.024 313.292C358.292 326.758 309.491 334.915 256 334.915C202.509 334.915 153.708 326.758 117.976 313.292C100.139 306.569 85.1307 298.364 74.4362 288.835C63.7426 279.307 56.6816 267.792 56.6816 254.72C56.6816 241.648 63.7426 230.133 74.4362 220.605C85.1307 211.076 100.139 202.871 117.976 196.148Z" fill="#61DAFB"/>
<path fill-rule="evenodd" clip-rule="evenodd" d="M190.028 98.0854C178.958 94.5505 170.632 95.1602 164.661 98.5629C158.69 101.966 153.992 108.778 151.558 120.009C149.125 131.238 149.196 145.972 152.029 163.422C157.684 198.263 174.052 242.159 200.049 286.605C226.046 331.051 256.376 366.991 284.117 389.246C298.011 400.392 310.903 407.82 321.972 411.355C333.042 414.889 341.368 414.28 347.339 410.877C353.31 407.474 358.008 400.662 360.442 389.431C362.875 378.202 362.803 363.468 359.971 346.018C354.316 311.177 337.948 267.281 311.951 222.835C285.954 178.389 255.623 142.449 227.883 120.194C213.988 109.048 201.097 101.62 190.028 98.0854ZM238.378 107.448C268.059 131.259 299.616 168.897 326.362 214.622C353.107 260.347 370.351 306.142 376.401 343.42C379.422 362.029 379.727 378.96 376.713 392.867C373.7 406.772 367.128 418.565 355.659 425.101C344.19 431.637 330.557 431.359 316.85 426.982C303.142 422.605 288.439 413.878 273.622 401.992C243.941 378.181 212.384 340.543 185.638 294.818C158.893 249.093 141.649 203.298 135.598 166.02C132.578 147.411 132.273 130.48 135.286 116.573C138.3 102.668 144.872 90.8747 156.341 84.3387C167.81 77.8026 181.443 78.0812 195.15 82.4581C208.858 86.8354 223.561 95.5619 238.378 107.448Z" fill="#61DAFB"/>
<path fill-rule="evenodd" clip-rule="evenodd" d="M360.442 120.008C358.008 108.778 353.31 101.966 347.339 98.5628C341.368 95.1601 333.042 94.5504 321.972 98.0853C310.903 101.62 298.011 109.048 284.117 120.194C256.376 142.449 226.046 178.389 200.049 222.835C174.052 267.281 157.684 311.177 152.029 346.018C149.196 363.468 149.125 378.202 151.558 389.431C153.992 400.662 158.69 407.474 164.661 410.877C170.632 414.28 178.958 414.889 190.028 411.354C201.097 407.82 213.988 400.392 227.883 389.246C255.623 366.991 285.954 331.051 311.951 286.605C337.948 242.159 354.316 198.262 359.971 163.422C362.803 145.972 362.875 131.238 360.442 120.008ZM376.401 166.02C370.351 203.298 353.107 249.092 326.362 294.818C299.616 340.543 268.059 378.18 238.378 401.991C223.561 413.878 208.858 422.605 195.15 426.982C181.443 431.359 167.81 431.637 156.341 425.101C144.872 418.565 138.3 406.772 135.286 392.867C132.273 378.96 132.578 362.029 135.598 343.42C141.649 306.142 158.893 260.347 185.638 214.622C212.384 168.897 243.941 131.259 273.622 107.448C288.439 95.5618 303.142 86.8353 316.85 82.458C330.557 78.0811 344.19 77.8025 355.659 84.3386C367.128 90.8746 373.7 102.668 376.713 116.573C379.727 130.479 379.422 147.411 376.401 166.02Z" fill="#61DAFB"/>
</g>
</g>
<defs>
<clipPath id="clip0_91_36">
<rect width="512" height="512" fill="white"/>
</clipPath>
<clipPath id="clip1_91_36">
<rect width="399.36" height="350.72" fill="white" transform="translate(56.3199 79.3601)"/>
</clipPath>
</defs>
</svg>
