<svg width="512" height="512" viewBox="0 0 512 512" fill="none" xmlns="http://www.w3.org/2000/svg">
<path d="M256 1C187.734 1 145.066 45.4453 128 134.333C153.6 89.888 183.466 73.2213 217.6 84.3333C237.074 90.6719 250.994 109.07 266.402 129.432C291.502 162.607 320.55 201 384 201C452.266 201 494.934 156.555 512 67.6667C486.4 112.112 456.534 128.779 422.4 117.667C402.926 111.328 389.006 92.9297 373.598 72.5677C348.498 39.3932 319.45 1 256 1ZM128 201C59.734 201 17.066 245.445 0 334.333C25.6 289.888 55.466 273.221 89.6 284.333C109.074 290.672 122.994 309.07 138.402 329.432C163.502 362.607 192.55 401 256 401C324.266 401 366.934 356.555 384 267.667C358.4 312.112 328.534 328.779 294.4 317.667C274.926 311.328 261.006 292.93 245.598 272.568C220.498 239.393 191.45 201 128 201Z" fill="url(#paint0_linear_99_34)"/>
<defs>
<linearGradient id="paint0_linear_99_34" x1="-3641.18" y1="19661.8" x2="-1084.78" y2="41692.7" gradientUnits="userSpaceOnUse">
<stop stop-color="#2298BD"/>
<stop offset="1" stop-color="#0ED7B5"/>
</linearGradient>
</defs>
</svg>
