<svg width="512" height="512" viewBox="0 0 512 512" fill="none" xmlns="http://www.w3.org/2000/svg">
<g clip-path="url(#clip0_99_31)">
<path d="M0 445.982C0 482.446 29.558 512 66.018 512H445.98C482.446 512 512 482.442 512 445.982V66.02C512 29.554 482.442 0 445.982 0H66.02C29.554 0 0 29.558 0 66.018V445.982Z" fill="#563D7C"/>
<path d="M212.316 226.476V153.97H276.138C282.218 153.97 288.078 154.476 293.722 155.49C299.366 156.502 304.36 158.31 308.702 160.916C313.042 163.522 316.516 167.14 319.122 171.77C321.726 176.402 323.03 182.336 323.03 189.57C323.03 202.596 319.122 212.004 311.306 217.792C303.492 223.582 293.506 226.476 281.348 226.476H212.316ZM144.15 101V411H294.374C308.268 411 321.8 409.264 334.97 405.79C348.14 402.316 359.862 396.962 370.138 389.726C380.412 382.49 388.59 373.154 394.668 361.722C400.748 350.288 403.786 336.756 403.786 321.126C403.786 301.732 399.082 285.162 389.676 271.414C380.268 257.664 366.012 248.04 346.908 242.54C360.802 235.884 371.296 227.344 378.388 216.924C385.478 206.504 389.024 193.48 389.024 177.848C389.024 163.376 386.636 151.22 381.86 141.378C377.084 131.538 370.354 123.65 361.67 117.716C352.988 111.782 342.568 107.512 330.41 104.908C318.254 102.302 304.794 101 290.032 101H144.15ZM212.316 358.03V272.932H286.558C301.32 272.932 313.188 276.332 322.162 283.136C331.134 289.938 335.622 301.298 335.622 317.218C335.622 325.324 334.246 331.98 331.496 337.19C328.746 342.4 325.056 346.526 320.424 349.564C315.794 352.604 310.438 354.774 304.36 356.078C298.28 357.378 291.914 358.03 285.256 358.03H212.316Z" fill="white"/>
</g>
<defs>
<clipPath id="clip0_99_31">
<rect width="512" height="512" fill="white"/>
</clipPath>
</defs>
</svg>
