<svg width="512" height="512" viewBox="0 0 512 512" fill="none" xmlns="http://www.w3.org/2000/svg">
<g clip-path="url(#clip0_91_31)">
<path d="M90.6667 4.1268e-05H421.333C433.243 -0.0114715 445.038 2.38597 456.043 7.05515C467.048 11.7243 477.048 18.5736 485.469 27.2109C493.891 35.8483 500.569 46.1041 505.121 57.3916C509.674 68.679 512.011 80.7764 512 92.9915V419.009C512.011 431.224 509.674 443.321 505.121 454.608C500.569 465.896 493.891 476.152 485.469 484.789C477.048 493.426 467.048 500.276 456.043 504.945C445.038 509.614 433.243 512.011 421.333 512H90.6667C78.757 512.011 66.9621 509.614 55.9568 504.945C44.9515 500.276 34.9521 493.426 26.5307 484.789C18.1092 476.152 11.4312 465.896 6.87877 454.608C2.32632 443.321 -0.0111847 431.224 4.02363e-05 419.009V92.9915C-0.0111847 80.7764 2.32632 68.679 6.87877 57.3916C11.4312 46.1041 18.1092 35.8483 26.5307 27.2109C34.9521 18.5736 44.9515 11.7243 55.9568 7.05515C66.9621 2.38597 78.757 -0.0114715 90.6667 4.1268e-05Z" fill="#000B1D"/>
<path d="M255.279 84.48C166.532 84.48 172.074 122.966 172.074 122.966L172.173 162.837H256.862V174.808H138.535C138.535 174.808 81.7458 168.368 81.7458 257.914C81.7458 347.46 131.313 344.285 131.313 344.285H160.894V302.732C160.894 302.732 159.3 253.165 209.67 253.165C260.039 253.165 293.666 253.165 293.666 253.165C293.666 253.165 340.858 253.928 340.858 207.556C340.858 161.184 340.858 130.881 340.858 130.881C340.858 130.881 348.023 84.48 255.279 84.48ZM208.581 111.292C217.007 111.292 223.817 118.102 223.817 126.528C223.817 134.954 217.007 141.764 208.581 141.764C200.155 141.764 193.345 134.954 193.345 126.528C193.345 118.102 200.155 111.292 208.581 111.292Z" fill="url(#paint0_linear_91_31)"/>
<path d="M257.799 432.246C346.546 432.246 341.004 393.76 341.004 393.76L340.905 353.889H256.216V341.918H374.543C374.543 341.918 431.332 348.358 431.332 258.812C431.332 169.266 381.765 172.441 381.765 172.441H352.184V213.994C352.184 213.994 353.778 263.561 303.408 263.561C253.039 263.561 219.412 263.561 219.412 263.561C219.412 263.561 172.22 262.798 172.22 309.17C172.22 355.543 172.22 385.846 172.22 385.846C172.22 385.846 165.055 432.246 257.799 432.246ZM304.497 405.435C296.071 405.435 289.261 398.625 289.261 390.199C289.261 381.773 296.071 374.963 304.497 374.963C312.923 374.963 319.733 381.773 319.733 390.199C319.733 398.625 312.923 405.435 304.497 405.435Z" fill="url(#paint1_linear_91_31)"/>
</g>
<defs>
<linearGradient id="paint0_linear_91_31" x1="115.342" y1="114.878" x2="288.202" y2="288.316" gradientUnits="userSpaceOnUse">
<stop stop-color="#387EB8"/>
<stop offset="1" stop-color="#366994"/>
</linearGradient>
<linearGradient id="paint1_linear_91_31" x1="221.678" y1="225.212" x2="407.33" y2="403.076" gradientUnits="userSpaceOnUse">
<stop stop-color="#FFE052"/>
<stop offset="1" stop-color="#FFC331"/>
</linearGradient>
<clipPath id="clip0_91_31">
<rect width="512" height="512" fill="white"/>
</clipPath>
</defs>
</svg>
