<svg width="512" height="512" viewBox="0 0 512 512" fill="none" xmlns="http://www.w3.org/2000/svg">
<g clip-path="url(#clip0_91_44)">
<path d="M90.6667 4.1268e-05H421.333C433.243 -0.0114715 445.038 2.38597 456.043 7.05515C467.048 11.7243 477.048 18.5736 485.469 27.2109C493.891 35.8483 500.569 46.1041 505.121 57.3916C509.674 68.679 512.011 80.7764 512 92.9915V419.009C512.011 431.224 509.674 443.321 505.121 454.608C500.569 465.896 493.891 476.152 485.469 484.789C477.048 493.426 467.048 500.276 456.043 504.945C445.038 509.614 433.243 512.011 421.333 512H90.6667C78.757 512.011 66.9621 509.614 55.9568 504.945C44.9515 500.276 34.9521 493.426 26.5307 484.789C18.1092 476.152 11.4312 465.896 6.87877 454.608C2.32632 443.321 -0.0111847 431.224 4.02363e-05 419.009V92.9915C-0.0111847 80.7764 2.32632 68.679 6.87877 57.3916C11.4312 46.1041 18.1092 35.8483 26.5307 27.2109C34.9521 18.5736 44.9515 11.7243 55.9568 7.05515C66.9621 2.38597 78.757 -0.0114715 90.6667 4.1268e-05Z" fill="#777BB3"/>
<path d="M120.781 285.913C133.23 285.913 142.523 283.617 148.404 279.091C154.221 274.612 158.239 266.852 160.345 256.027C162.309 245.909 161.561 238.844 158.123 235.031C154.607 231.137 147.007 229.162 135.533 229.162H115.638L104.609 285.913H120.781ZM55.7099 355.82C54.7864 355.82 53.9093 355.407 53.3222 354.693C52.7341 353.98 52.4957 353.041 52.6722 352.134L81.902 201.743C82.1847 200.289 83.459 199.239 84.9408 199.239H147.938C167.737 199.239 182.474 204.615 191.737 215.219C201.049 225.879 203.925 240.779 200.283 259.506C198.802 267.136 196.253 274.221 192.709 280.565C189.16 286.916 184.471 292.792 178.768 298.034C171.941 304.423 164.215 309.056 155.824 311.782C147.566 314.472 136.961 315.836 124.303 315.836H98.7942L91.5094 353.315C91.2267 354.769 89.9534 355.82 88.4717 355.82H55.7099Z" fill="black"/>
<path d="M118.19 232.258H135.533C149.381 232.258 154.192 235.296 155.826 237.107C158.538 240.114 159.049 246.454 157.307 255.44C155.348 265.5 151.718 272.633 146.516 276.639C141.189 280.74 132.53 282.818 120.781 282.818H108.364L118.19 232.258ZM147.939 196.143H84.94C81.9765 196.143 79.4289 198.244 78.8635 201.153L49.6337 351.544C49.2808 353.359 49.7575 355.236 50.9327 356.663C52.109 358.09 53.8611 358.916 55.7101 358.916H88.4709C91.4354 358.916 93.983 356.815 94.5484 353.906L101.346 318.932H124.303C137.286 318.932 148.215 317.516 156.785 314.725C165.598 311.862 173.706 307.007 180.882 300.296C186.817 294.835 191.706 288.706 195.41 282.077C199.116 275.445 201.778 268.05 203.322 260.097C207.156 240.384 204.042 224.599 194.068 213.183C184.191 201.876 168.67 196.143 147.939 196.143ZM100.853 289.009H120.781C133.989 289.009 143.828 286.521 150.292 281.544C156.758 276.567 161.118 268.259 163.384 256.618C165.552 245.441 164.565 237.554 160.422 232.959C156.274 228.365 147.979 226.067 135.533 226.067H113.086L100.853 289.009ZM147.939 202.334C166.89 202.334 180.716 207.308 189.406 217.256C198.095 227.204 200.712 241.089 197.245 258.916C195.818 266.26 193.404 272.974 190.007 279.057C186.605 285.143 182.163 290.709 176.673 295.756C170.131 301.878 162.864 306.24 154.867 308.838C146.871 311.444 136.685 312.741 124.303 312.741H96.2417L88.4709 352.725H55.7101L84.94 202.334H147.939Z" fill="white"/>
<path d="M275.4 315.836C274.475 315.836 273.599 315.424 273.012 314.71C272.423 313.997 272.185 313.059 272.361 312.151L285.291 245.609C286.521 239.28 286.218 234.738 284.438 232.819C283.348 231.646 280.075 229.678 270.397 229.678H246.973L230.716 313.331C230.433 314.786 229.159 315.836 227.677 315.836H195.175C194.25 315.836 193.374 315.424 192.786 314.71C192.198 313.997 191.959 313.058 192.136 312.151L221.366 161.76C221.648 160.306 222.923 159.255 224.404 159.255H256.907C257.832 159.255 258.708 159.668 259.296 160.381C259.884 161.095 260.122 162.033 259.946 162.941L252.892 199.239H278.092C297.289 199.239 310.307 202.623 317.889 209.586C325.617 216.689 328.029 228.047 325.057 243.347L311.457 313.331C311.175 314.786 309.901 315.836 308.418 315.836H275.4Z" fill="black"/>
<path d="M256.907 156.159H224.404C221.44 156.159 218.892 158.26 218.327 161.169L189.097 311.56C188.744 313.375 189.221 315.252 190.397 316.679C191.573 318.106 193.325 318.931 195.175 318.931H227.677C230.641 318.931 233.189 316.83 233.755 313.922L249.524 232.773H270.397C280.058 232.773 282.086 234.837 282.168 234.925C282.754 235.556 283.524 238.476 282.252 245.018L269.322 311.56C268.969 313.375 269.446 315.252 270.622 316.679C271.799 318.106 273.551 318.931 275.4 318.931H308.418C311.382 318.931 313.931 316.83 314.496 313.922L328.095 243.937C331.286 227.509 328.556 215.186 319.983 207.307C311.803 199.794 298.1 196.143 278.092 196.143H256.646L262.985 163.532C263.337 161.717 262.861 159.839 261.685 158.413C260.508 156.986 258.756 156.159 256.907 156.159ZM256.907 162.35L249.136 202.334H278.092C296.311 202.334 308.878 205.514 315.794 211.866C322.71 218.222 324.782 228.521 322.018 242.757L308.418 312.74H275.4L288.33 246.199C289.801 238.63 289.26 233.466 286.706 230.713C284.15 227.96 278.713 226.582 270.397 226.582H244.42L227.677 312.74H195.175L224.404 162.35H256.907Z" fill="white"/>
<path d="M376.485 285.913C388.934 285.913 398.228 283.617 404.109 279.091C409.926 274.613 413.944 266.853 416.051 256.027C418.015 245.909 417.266 238.844 413.827 235.031C410.312 231.137 402.711 229.162 391.237 229.162H371.343L360.313 285.913H376.485ZM311.416 355.82C310.492 355.82 309.615 355.407 309.028 354.693C308.44 353.98 308.2 353.041 308.377 352.134L337.607 201.743C337.89 200.289 339.164 199.239 340.646 199.239H403.643C423.443 199.239 438.179 204.615 447.443 215.219C456.755 225.878 459.63 240.778 455.989 259.506C454.505 267.136 451.958 274.221 448.413 280.565C444.865 286.916 440.175 292.792 434.472 298.034C427.646 304.423 419.919 309.056 411.528 311.782C403.271 314.472 392.665 315.836 380.008 315.836H354.498L347.216 353.315C346.932 354.769 345.659 355.82 344.176 355.82H311.416Z" fill="black"/>
<path d="M373.895 232.258H391.238C405.086 232.258 409.896 235.296 411.531 237.107C414.243 240.114 414.755 246.454 413.011 255.439C411.053 265.5 407.422 272.633 402.221 276.639C396.894 280.74 388.235 282.818 376.486 282.818H364.069L373.895 232.258ZM403.643 196.143H340.646C337.682 196.143 335.135 198.244 334.569 201.153L305.339 351.544C304.987 353.359 305.463 355.236 306.639 356.663C307.815 358.09 309.567 358.916 311.416 358.916H344.177C347.14 358.916 349.689 356.815 350.254 353.906L357.051 318.932H380.008C392.991 318.932 403.92 317.516 412.489 314.725C421.302 311.862 429.413 307.006 436.589 300.294C442.524 294.834 447.411 288.706 451.115 282.077C454.82 275.445 457.483 268.05 459.027 260.097C462.86 240.383 459.746 224.598 449.773 213.182C439.896 201.876 424.376 196.143 403.643 196.143ZM356.559 289.009H376.486C389.694 289.009 399.533 286.521 405.997 281.544C412.464 276.567 416.823 268.259 419.089 256.618C421.258 245.441 420.27 237.554 416.127 232.959C411.979 228.365 403.684 226.067 391.238 226.067H368.791L356.559 289.009ZM403.643 202.334C422.595 202.334 436.421 207.308 445.111 217.256C453.801 227.204 456.417 241.089 452.95 258.916C451.523 266.26 449.109 272.974 445.711 279.057C442.309 285.143 437.867 290.709 432.378 295.756C425.836 301.878 418.569 306.24 410.572 308.838C402.576 311.444 392.39 312.741 380.008 312.741H351.946L344.177 352.725H311.416L340.646 202.334H403.643Z" fill="white"/>
</g>
<defs>
<clipPath id="clip0_91_44">
<rect width="512" height="512" fill="white"/>
</clipPath>
</defs>
</svg>
