<svg width="512" height="512" viewBox="0 0 512 512" fill="none" xmlns="http://www.w3.org/2000/svg">
<g clip-path="url(#clip0_91_59)">
<path d="M90.6667 4.1268e-05H421.333C433.243 -0.0114715 445.038 2.38597 456.043 7.05514C467.048 11.7243 477.048 18.5736 485.469 27.2109C493.891 35.8483 500.569 46.1041 505.121 57.3916C509.674 68.679 512.011 80.7764 512 92.9915V419.009C512.011 431.224 509.674 443.321 505.121 454.608C500.569 465.896 493.891 476.152 485.469 484.789C477.048 493.426 467.048 500.276 456.043 504.945C445.038 509.614 433.243 512.011 421.333 512H90.6667C78.757 512.011 66.9621 509.614 55.9568 504.945C44.9515 500.276 34.9521 493.426 26.5307 484.789C18.1092 476.152 11.4312 465.896 6.87877 454.608C2.32632 443.321 -0.0111847 431.224 4.02363e-05 419.009V92.9915C-0.0111847 80.7764 2.32632 68.679 6.87877 57.3916C11.4312 46.1041 18.1092 35.8483 26.5307 27.2109C34.9521 18.5736 44.9515 11.7243 55.9568 7.05514C66.9621 2.38597 78.757 -0.0114715 90.6667 4.1268e-05Z" fill="#000B1D"/>
<path d="M76.8441 224.111C76.0269 224.111 75.8225 223.702 76.2312 223.089L80.5217 217.573C80.9303 216.96 81.9519 216.551 82.7691 216.551H155.709C156.526 216.551 156.73 217.164 156.322 217.777L152.848 223.089C152.44 223.702 151.418 224.315 150.805 224.315L76.8441 224.111Z" fill="#2DBCAF"/>
<path d="M45.993 242.907C45.1758 242.907 44.9715 242.499 45.3801 241.886L49.6706 236.369C50.0793 235.756 51.1008 235.348 51.9181 235.348H145.084C145.902 235.348 146.31 235.961 146.106 236.574L144.471 241.477C144.267 242.294 143.45 242.703 142.633 242.703L45.993 242.907Z" fill="#2DBCAF"/>
<path d="M95.4366 261.704C94.6194 261.704 94.4151 261.091 94.8237 260.478L97.6841 255.37C98.0927 254.757 98.9099 254.145 99.7272 254.145H140.59C141.407 254.145 141.815 254.757 141.815 255.575L141.407 260.478C141.407 261.295 140.59 261.908 139.977 261.908L95.4366 261.704Z" fill="#2DBCAF"/>
<path d="M307.512 220.433C294.641 223.702 285.855 226.154 273.188 229.423C270.123 230.24 269.919 230.444 267.263 227.379C264.198 223.906 261.951 221.659 257.66 219.616C244.788 213.282 232.325 215.121 220.68 222.68C206.786 231.67 199.636 244.95 199.84 261.5C200.044 277.845 211.281 291.329 227.422 293.577C241.315 295.415 252.961 290.512 262.155 280.092C263.994 277.845 265.628 275.393 267.671 272.532C260.316 272.532 251.122 272.532 228.239 272.532C223.949 272.532 222.927 269.876 224.357 266.403C227.013 260.069 231.917 249.445 234.777 244.133C235.39 242.907 236.82 240.864 239.885 240.864C250.305 240.864 288.716 240.864 314.255 240.864C313.846 246.38 313.846 251.897 313.029 257.413C310.781 272.124 305.265 285.608 296.275 297.458C281.565 316.868 262.359 328.923 238.046 332.192C218.024 334.848 199.431 330.966 183.086 318.707C167.967 307.265 159.386 292.146 157.139 273.35C154.483 251.08 161.021 231.057 174.505 213.486C189.011 194.485 208.217 182.431 231.713 178.14C250.918 174.667 269.306 176.914 285.855 188.152C296.684 195.302 304.448 205.109 309.555 216.96C310.781 218.798 309.964 219.82 307.512 220.433Z" fill="#2DBCAF"/>
<path d="M375.14 333.417C356.547 333.009 339.589 327.696 325.288 315.438C313.233 305.018 305.674 291.737 303.222 276.005C299.544 252.918 305.878 232.487 319.771 214.303C334.686 194.689 352.665 184.474 376.979 180.183C397.818 176.505 417.432 178.549 435.207 190.603C451.348 201.636 461.359 216.551 464.015 236.165C467.489 263.747 459.521 286.221 440.52 305.426C427.035 319.115 410.486 327.696 391.485 331.578C385.968 332.6 380.452 332.804 375.14 333.417ZM423.766 250.875C423.562 248.219 423.562 246.176 423.153 244.133C419.475 223.906 400.883 212.464 381.473 216.959C362.472 221.25 350.214 233.304 345.719 252.51C342.041 268.446 349.805 284.587 364.515 291.125C375.753 296.028 386.99 295.415 397.818 289.899C413.959 281.522 422.744 268.446 423.766 250.875Z" fill="#2DBCAF"/>
</g>
<defs>
<clipPath id="clip0_91_59">
<rect width="512" height="512" fill="white"/>
</clipPath>
</defs>
</svg>
