<svg width="512" height="512" viewBox="0 0 512 512" fill="none" xmlns="http://www.w3.org/2000/svg">
<g clip-path="url(#clip0_100_36)">
<rect x="5" width="512" height="512" rx="89" fill="#FFFDFD"/>
<path d="M456 328.7C441.451 331.889 432.454 328.838 424.382 318.394C406.259 295.004 386.254 272.686 366.952 249.956C364.463 247.015 361.879 244.129 358.656 240.474C335.812 267.024 312.999 292.31 291.591 318.613C283.933 328.013 275.893 332.109 261.599 328.783L347.489 229.48L267.534 139.797C281.285 137.488 290.793 138.67 299.216 149.279C317.817 172.696 338.332 194.986 358.784 218.568C379.363 195.069 399.623 172.751 418.766 149.554C426.455 140.154 434.719 136.581 448.534 140.044C438.069 152 427.827 163.764 417.522 175.445C403.611 191.194 389.955 207.135 375.534 222.554C370.397 228.051 371.227 231.624 375.821 236.818C402.494 267.024 428.848 297.533 456 328.7ZM56.0957 227.831C58.3929 217.909 59.9244 207.794 63.1149 198.065C82.2583 139.165 160.746 114.676 214.666 151.176C246.253 172.586 254.102 202.765 252.538 236.791H74.5052C71.8252 297.835 122.842 334.692 187.866 315.892C210.678 309.296 224.11 293.905 230.842 274.665C234.256 265.018 239.904 263.506 250.432 266.255C245.04 290.332 232.821 310.45 207.296 323.039C169.01 341.893 114.355 335.792 85.6084 309.598C68.6346 294.207 61.4239 275.05 58.2334 254.354C57.7548 251.056 56.7657 247.812 56 244.542C56.0638 238.971 56.0957 233.401 56.0957 227.831ZM74.8243 223.736H235.724C234.671 179.595 202.766 148.235 159.151 147.96C111.292 147.63 76.8981 178.248 74.8243 223.736Z" fill="black"/>
</g>
<defs>
<clipPath id="clip0_100_36">
<rect width="512" height="512" fill="white"/>
</clipPath>
</defs>
</svg>
