<svg width="520" height="520" viewBox="0 0 520 520" fill="none" xmlns="http://www.w3.org/2000/svg">
<g clip-path="url(#clip0_91_3)" filter="url(#filter0_d_91_3)">
<path d="M94.6667 4.1268e-05H425.333C437.243 -0.0114715 449.038 2.38597 460.043 7.05514C471.048 11.7243 481.048 18.5736 489.469 27.2109C497.891 35.8483 504.569 46.1041 509.121 57.3916C513.674 68.679 516.011 80.7764 516 92.9915V419.009C516.011 431.224 513.674 443.321 509.121 454.608C504.569 465.896 497.891 476.152 489.469 484.789C481.048 493.426 471.048 500.276 460.043 504.945C449.038 509.614 437.243 512.011 425.333 512H94.6667C82.757 512.011 70.9621 509.614 59.9568 504.945C48.9515 500.276 38.9521 493.426 30.5307 484.789C22.1092 476.152 15.4312 465.896 10.8788 454.608C6.32632 443.321 3.98882 431.224 4.00004 419.009V92.9915C3.98882 80.7764 6.32632 68.679 10.8788 57.3916C15.4312 46.1041 22.1092 35.8483 30.5307 27.2109C38.9521 18.5736 48.9515 11.7243 59.9568 7.05514C70.9621 2.38597 82.757 -0.0114715 94.6667 4.1268e-05Z" fill="#000B1D"/>
<path d="M210.934 412.16C240.389 412.16 264.267 388.282 264.267 358.827V305.494H210.934C181.479 305.494 157.601 329.372 157.601 358.827C157.601 388.282 181.479 412.16 210.934 412.16Z" fill="#0ACF83"/>
<path d="M157.601 252.16C157.601 222.705 181.479 198.827 210.934 198.827H264.267V305.493H210.934C181.479 305.493 157.601 281.615 157.601 252.16Z" fill="#A259FF"/>
<path d="M157.601 145.493C157.601 116.038 181.479 92.1602 210.934 92.1602H264.267V198.827H210.934C181.479 198.827 157.601 174.949 157.601 145.493Z" fill="#F24E1E"/>
<path d="M264.268 92.1602H317.601C347.056 92.1602 370.934 116.038 370.934 145.493C370.934 174.949 347.056 198.827 317.601 198.827H264.268V92.1602Z" fill="#FF7262"/>
<path d="M370.934 252.16C370.934 281.615 347.056 305.493 317.601 305.493C288.146 305.493 264.268 281.615 264.268 252.16C264.268 222.705 288.146 198.827 317.601 198.827C347.056 198.827 370.934 222.705 370.934 252.16Z" fill="#1ABCFE"/>
</g>
<defs>
<filter id="filter0_d_91_3" x="0" y="0" width="520" height="520" filterUnits="userSpaceOnUse" color-interpolation-filters="sRGB">
<feFlood flood-opacity="0" result="BackgroundImageFix"/>
<feColorMatrix in="SourceAlpha" type="matrix" values="0 0 0 0 0 0 0 0 0 0 0 0 0 0 0 0 0 0 127 0" result="hardAlpha"/>
<feOffset dy="4"/>
<feGaussianBlur stdDeviation="2"/>
<feComposite in2="hardAlpha" operator="out"/>
<feColorMatrix type="matrix" values="0 0 0 0 0 0 0 0 0 0 0 0 0 0 0 0 0 0 0.25 0"/>
<feBlend mode="normal" in2="BackgroundImageFix" result="effect1_dropShadow_91_3"/>
<feBlend mode="normal" in="SourceGraphic" in2="effect1_dropShadow_91_3" result="shape"/>
</filter>
<clipPath id="clip0_91_3">
<rect width="512" height="512" fill="white" transform="translate(4)"/>
</clipPath>
</defs>
</svg>
